<svg width="31" height="21" viewBox="0 0 31 21" fill="none" xmlns="http://www.w3.org/2000/svg">
<g clip-path="url(#clip0_303_6229)">
<path d="M31 0H0V21H31V0Z" fill="white"/>
<path d="M15.4999 19.5C22.0399 19.5 27.6699 16.21 30.2499 11.47C30.5799 10.87 30.5799 10.12 30.2499 9.52C27.6699 4.79 22.0399 1.5 15.4999 1.5C8.95994 1.5 3.32994 4.79 0.749941 9.53C0.419941 10.13 0.419941 10.88 0.749941 11.48C3.33994 16.22 8.95994 19.51 15.4999 19.51V19.5Z" stroke="#BBC2C6" stroke-miterlimit="10"/>
<path d="M15.5 15.8104C18.3995 15.8104 20.75 13.4331 20.75 10.5004C20.75 7.5678 18.3995 5.19043 15.5 5.19043C12.6005 5.19043 10.25 7.5678 10.25 10.5004C10.25 13.4331 12.6005 15.8104 15.5 15.8104Z" stroke="#BBC2C6" stroke-miterlimit="10"/>
</g>
<defs>
<clipPath id="clip0_303_6229">
<rect width="31" height="21" fill="white"/>
</clipPath>
</defs>
</svg>
