<svg width="31" height="20" viewBox="0 0 31 20" fill="none" xmlns="http://www.w3.org/2000/svg">
  <g clip-path="url(#clip_eye_off)">
    <path d="M31 0H0V20H31V0Z" fill="white"/>
    <path d="M5.5 0L25.5 20" stroke="#BBC2C6" stroke-linecap="round" stroke-linejoin="round"/>
    <path d="M15.5 15.31C18.3995 15.31 20.75 12.9326 20.75 10C20.75 7.06737 18.3995 4.69 15.5 4.69C12.6005 4.69 10.25 7.06737 10.25 10C10.25 12.9326 12.6005 15.31 15.5 15.31Z" stroke="#BBC2C6" stroke-linecap="round" stroke-linejoin="round"/>
    <path d="M5.38 4.05C3.43 5.38 1.82 7.07 0.750002 9.03C0.420002 9.63 0.420002 10.38 0.750002 10.98C3.34 15.72 8.96 19.01 15.51 19.01C16.8 19.01 18.04 18.85 19.24 18.61" stroke="#BBC2C6" stroke-linecap="round" stroke-linejoin="round"/>
    <path d="M25.62 15.95C27.58 14.62 29.18 12.93 30.25 10.97C30.58 10.37 30.58 9.62 30.25 9.02C27.67 4.29 22.04 1 15.5 1C14.21 1 12.97 1.16 11.77 1.4" stroke="#BBC2C6" stroke-linecap="round" stroke-linejoin="round"/>
  </g>
  <defs>
    <clipPath id="clip_eye_off">
      <rect width="31" height="20" fill="white"/>
    </clipPath>
  </defs>
</svg>
