<svg width="26" height="26" viewBox="0 0 26 26" fill="none" xmlns="http://www.w3.org/2000/svg">
<path d="M1.04001 22.9445L10.088 16.0822C11.808 14.7786 14.184 14.7786 15.904 16.0822L24.952 22.9445" stroke="#FFB000" stroke-miterlimit="10" stroke-linecap="round"/>
<path d="M9.136 16.7941L1 10.8836" stroke="#FFB000" stroke-miterlimit="10" stroke-linecap="round"/>
<path d="M16.856 16.7941L24.992 10.8836" stroke="#FFB000" stroke-miterlimit="10" stroke-linecap="round"/>
<path d="M4.42401 13.4029V3.5414H21.576V13.4029" stroke="#FFB000" stroke-miterlimit="10" stroke-linecap="round"/>
<path d="M13 13.3869C15.1782 13.3869 16.944 11.6753 16.944 9.56389C16.944 7.45248 15.1782 5.74084 13 5.74084C10.8218 5.74084 9.056 7.45248 9.056 9.56389C9.056 11.6753 10.8218 13.3869 13 13.3869Z" stroke="#FFB000" stroke-miterlimit="10" stroke-linecap="round"/>
<path d="M13 11.2995C13.9853 11.2995 14.784 10.5224 14.784 9.56389C14.784 8.60536 13.9853 7.82832 13 7.82832C12.0147 7.82832 11.216 8.60536 11.216 9.56389C11.216 10.5224 12.0147 11.2995 13 11.2995Z" stroke="#FFB000" stroke-miterlimit="10" stroke-linecap="round"/>
<path d="M16.824 10.4998C16.704 10.9558 16.28 11.2998 15.776 11.2998C15.176 11.2998 14.696 10.8278 14.696 10.2518C14.696 10.1638 14.704 10.0758 14.728 9.98779" stroke="#FFB000" stroke-miterlimit="10" stroke-linecap="round"/>
<path d="M9.31201 3.542L12.472 1.174C12.784 0.942 13.208 0.942 13.52 1.174L16.68 3.542" stroke="#FFB000" stroke-miterlimit="10" stroke-linecap="round"/>
<path d="M21.576 7.21245L24.664 9.52387C24.872 9.68383 25 9.92377 25 10.1797V24.1682C25 24.6241 24.616 25 24.144 25H1.856C1.384 25 1 24.6321 1 24.1682V10.1797C1 9.92377 1.12 9.68383 1.336 9.52387L4.424 7.21245" stroke="#FFB000" stroke-miterlimit="10" stroke-linecap="round"/>
</svg>
