<?xml version="1.0" encoding="UTF-8"?>
<svg id="Layer_1" xmlns="http://www.w3.org/2000/svg" version="1.1" viewBox="0 0 280 40">
  <!-- Generator: Adobe Illustrator 29.5.1, SVG Export Plug-In . SVG Version: 2.1.0 Build 141)  -->
  <defs>
    <style>
      .st0 {
        fill: #ffb000;
      }

      .st1 {
        fill: #01372c;
      }

      .st2 {
        fill: #00c49c;
      }
    </style>
  </defs>
  <path class="st1" d="M78.7,32.6V6.8h4.7l9.2,16.9h-1.2l9.2-16.9h4.6v25.7h-5.1V15.5h.8l-7.4,13.2h-3.2l-7.4-13.3h.8v17.1h-5.1Z"/>
  <path class="st1" d="M118.4,32.9c-2.1,0-3.9-.4-5.5-1.1-1.5-.8-2.7-1.8-3.5-3.2-.8-1.4-1.2-3.1-1.2-5s.4-3.5,1.2-4.8c.8-1.4,1.9-2.5,3.3-3.3,1.4-.8,3-1.2,4.7-1.2s3.3.4,4.6,1.1c1.3.7,2.2,1.8,2.9,3.2.7,1.4,1,3,1,4.8v1.4h-13.1v-2.8h9.2l-.6.5c0-1.5-.3-2.6-1-3.4-.6-.8-1.6-1.2-2.8-1.2s-1.7.2-2.3.6c-.6.4-1.1,1-1.5,1.8-.3.8-.5,1.7-.5,2.8v.3c0,1.2.2,2.3.6,3.1.4.8,1,1.4,1.7,1.8.8.4,1.7.6,2.8.6s2-.1,3-.4c1-.3,1.9-.7,2.7-1.4l1.5,3.7c-.9.7-2,1.2-3.3,1.6-1.3.4-2.6.6-3.9.6Z"/>
  <path class="st1" d="M137.5,32.9c-2.6,0-4.4-.6-5.7-1.8-1.2-1.2-1.8-3-1.8-5.5v-6.9h-3.4v-4.1h3.4v-5.3h5.5v5.3h5.3v4.1h-5.3v6.7c0,1,.2,1.8.7,2.3.5.5,1.2.7,2.3.7s.6,0,1,0c.4,0,.8-.2,1.2-.3l.8,4c-.5.3-1.1.5-1.8.6s-1.4.2-2.1.2Z"/>
  <path class="st1" d="M142.9,11.2v-5.1h6v5.1h-6ZM143.1,32.6V14.7h5.5v17.9h-5.5Z"/>
  <path class="st1" d="M159.4,32.9c-1,0-2.1,0-3-.2-1-.2-1.9-.4-2.7-.7-.8-.3-1.5-.7-2.1-1.1l1.3-3.5c.6.3,1.3.7,2,.9s1.5.5,2.2.7c.8.1,1.5.2,2.3.2s1.8-.2,2.3-.5c.5-.3.7-.8.7-1.3s-.2-.8-.5-1c-.3-.2-.8-.4-1.4-.5l-3.9-.7c-1.5-.3-2.6-.9-3.4-1.7-.8-.8-1.2-1.9-1.2-3.2s.3-2.3,1-3.2c.7-.9,1.6-1.6,2.8-2,1.2-.5,2.6-.7,4.1-.7s1.7,0,2.6.2c.8.1,1.6.4,2.4.7.7.3,1.4.7,2,1.1l-1.4,3.5c-.5-.3-1-.6-1.6-.9-.6-.3-1.3-.5-1.9-.6-.7-.1-1.3-.2-1.8-.2-1.1,0-1.9.2-2.4.5-.5.3-.7.8-.7,1.3s.1.8.4,1c.3.3.7.5,1.3.6l3.9.7c1.6.3,2.7.8,3.6,1.6.8.8,1.2,1.9,1.2,3.2s-.3,2.3-1,3.2c-.7.9-1.6,1.6-2.8,2s-2.6.7-4.2.7Z"/>
  <path class="st1" d="M177,32.9c-1,0-2.1,0-3-.2-1-.2-1.9-.4-2.7-.7-.8-.3-1.5-.7-2.1-1.1l1.3-3.5c.6.3,1.3.7,2,.9s1.5.5,2.2.7c.8.1,1.5.2,2.3.2s1.8-.2,2.3-.5c.5-.3.7-.8.7-1.3s-.2-.8-.5-1c-.3-.2-.8-.4-1.4-.5l-3.9-.7c-1.5-.3-2.6-.9-3.4-1.7-.8-.8-1.2-1.9-1.2-3.2s.3-2.3,1-3.2c.7-.9,1.6-1.6,2.8-2,1.2-.5,2.6-.7,4.1-.7s1.7,0,2.6.2c.8.1,1.6.4,2.4.7.7.3,1.4.7,2,1.1l-1.4,3.5c-.5-.3-1-.6-1.6-.9-.6-.3-1.3-.5-1.9-.6-.7-.1-1.3-.2-1.8-.2-1.1,0-1.9.2-2.4.5-.5.3-.7.8-.7,1.3s.1.8.4,1c.3.3.7.5,1.3.6l3.9.7c1.6.3,2.7.8,3.6,1.6.8.8,1.2,1.9,1.2,3.2s-.3,2.3-1,3.2c-.7.9-1.6,1.6-2.8,2s-2.6.7-4.2.7Z"/>
  <path class="st1" d="M204.9,32.6l-11.6-25.7h6.1l8.9,20.6h-1.8l8.9-20.6h5.8l-11.6,25.7h-4.6Z"/>
  <path class="st1" d="M222,11.2v-5.1h6v5.1h-6ZM222.2,32.6V14.7h5.5v17.9h-5.5Z"/>
  <path class="st1" d="M238.5,32.9c-1,0-2.1,0-3-.2-1-.2-1.9-.4-2.7-.7-.8-.3-1.5-.7-2.1-1.1l1.3-3.5c.6.3,1.3.7,2,.9s1.5.5,2.2.7c.8.1,1.5.2,2.3.2s1.8-.2,2.3-.5c.5-.3.7-.8.7-1.3s-.2-.8-.5-1c-.3-.2-.8-.4-1.4-.5l-3.9-.7c-1.5-.3-2.6-.9-3.4-1.7-.8-.8-1.2-1.9-1.2-3.2s.3-2.3,1-3.2c.7-.9,1.6-1.6,2.8-2,1.2-.5,2.6-.7,4.1-.7s1.7,0,2.6.2c.8.1,1.6.4,2.4.7.7.3,1.4.7,2,1.1l-1.4,3.5c-.5-.3-1-.6-1.6-.9-.6-.3-1.3-.5-1.9-.6-.7-.1-1.3-.2-1.8-.2-1.1,0-1.9.2-2.4.5-.5.3-.7.8-.7,1.3s.1.8.4,1c.3.3.7.5,1.3.6l3.9.7c1.6.3,2.7.8,3.6,1.6.8.8,1.2,1.9,1.2,3.2s-.3,2.3-1,3.2c-.7.9-1.6,1.6-2.8,2s-2.6.7-4.2.7Z"/>
  <path class="st1" d="M258,32.9c-2.6,0-4.4-.6-5.7-1.8-1.2-1.2-1.8-3-1.8-5.5v-6.9h-3.4v-4.1h3.4v-5.3h5.5v5.3h5.3v4.1h-5.3v6.7c0,1,.2,1.8.7,2.3.5.5,1.2.7,2.3.7s.6,0,1,0c.4,0,.8-.2,1.2-.3l.8,4c-.5.3-1.1.5-1.8.6s-1.4.2-2.1.2Z"/>
  <path class="st1" d="M269.7,32.9c-1.4,0-2.6-.3-3.6-.7-1-.5-1.8-1.2-2.4-2-.6-.9-.9-1.9-.9-3s.3-2.3,1-3.1c.7-.8,1.8-1.3,3.3-1.6,1.5-.3,3.5-.5,6.1-.5h1.9v2.8h-1.9c-.9,0-1.7,0-2.4.1-.7,0-1.2.2-1.6.4-.4.2-.7.4-.9.7-.2.3-.3.6-.3,1,0,.7.2,1.2.7,1.6.5.4,1.2.7,2,.7s1.3-.2,1.9-.5c.6-.3,1-.8,1.3-1.3.3-.6.5-1.2.5-2v-4.2c0-1.1-.2-1.8-.7-2.3-.5-.5-1.3-.7-2.5-.7s-2,.1-3,.4c-1.1.3-2.1.8-3.2,1.4l-1.5-3.7c.6-.4,1.4-.8,2.3-1.2.9-.3,1.8-.6,2.8-.8s2-.3,2.8-.3c1.9,0,3.4.3,4.7.8,1.2.5,2.1,1.4,2.7,2.5.6,1.1.9,2.6.9,4.3v10.6h-5.1v-3.6h.3c-.1.8-.5,1.5-.9,2.1-.5.6-1.1,1-1.8,1.4-.7.3-1.6.5-2.5.5Z"/>
  <path class="st2" d="M43.7,40h-10.7c-1.3,0-2.4-.6-3-1.7L10.8,3.4C9.9,1.9,11.2,0,13,0h10.7c1.3,0,2.4.6,3,1.7l19.3,34.9c.8,1.5-.5,3.4-2.2,3.4Z"/>
  <path class="st2" d="M66.1,40h-10.7c-1.3,0-2.4-.6-3-1.7L33.1,3.4c-.8-1.5.5-3.4,2.2-3.4h10.7c1.3,0,2.4.6,3,1.7l19.3,34.9c.8,1.5-.5,3.4-2.2,3.4Z"/>
  <path class="st0" d="M18.1,24.8c-4.7,0-8.6-3.8-8.6-8.6h0c0-.1-.1-.3-.3-.3h0c-.1,0-.3.1-.3.3h0c0,4.7-3.8,8.6-8.6,8.6h0c-.1,0-.3.1-.3.3H.2c0,.1.1.3.3.3h0c4.7,0,8.6,3.8,8.6,8.6h0c0,.1.1.3.3.3h0c.1,0,.3-.1.3-.3h0c0-4.7,3.8-8.6,8.6-8.6h0c.1,0,.3-.1.3-.3h0c0-.1-.1-.3-.3-.3h0Z"/>
</svg>